<svg xmlns="http://www.w3.org/2000/svg" xmlns:xlink="http://www.w3.org/1999/xlink" version="1.1" x="0px" y="0px" viewBox="0 0 100 125" enable-background="new 0 0 100 100" xml:space="preserve"><path d="M27.3,34.4c-1.4-1.4-2.2-3.3-2.2-5.3c0-2,0.8-3.9,2.2-5.3c1.4-1.4,3.3-2.2,5.3-2.2c2,0,3.9,0.8,5.3,2.2l0.4,0.4l0.4-0.4  c1.4-1.4,3.3-2.2,5.3-2.2c2,0,3.9,0.8,5.3,2.2c1.4,1.4,2.2,3.3,2.2,5.3c0,2-0.8,3.9-2.2,5.3L39.1,44.6c-0.2,0.2-0.5,0.3-0.8,0.3  c-0.3,0-0.6-0.1-0.8-0.3L27.3,34.4z M1.7,47.9V16.4c0-5.8,4.7-10.4,10.4-10.4h52c5.8,0,10.4,4.7,10.4,10.4v31.5  c0,5.8-4.7,10.4-10.4,10.4H28.5L16.7,70.2C16,70.9,15,71.3,14,71.3c-1,0-1.9-0.4-2.7-1.1c-0.8-0.7-1.2-1.8-1.2-2.9v-9.3  C5.3,57.1,1.7,52.9,1.7,47.9z M9,47.9c0,1.7,1.4,3.2,3.2,3.2h5.2v8.2l8.2-8.2h38.7c1.7,0,3.2-1.4,3.2-3.2V16.4  c0-1.7-1.4-3.2-3.2-3.2h-52c-1.7,0-3.2,1.4-3.2,3.2V47.9z M87.8,28.7h-6.3V36h6.3c1.7,0,3.2,1.4,3.2,3.2v31.5c0,1.7-1.4,3.2-3.2,3.2  h-5.2V82l-8.2-8.2H35.8c-1.7,0-3.2-1.4-3.2-3.2v-5.4h-1.2l-6,6c0.3,5.5,4.9,9.8,10.4,9.8h35.7l11.8,11.8c0.7,0.7,1.7,1.1,2.8,1.1  c2.2,0,3.9-1.8,3.9-3.9v-9.3c4.7-1,8.3-5.2,8.3-10.2V39.1C98.3,33.4,93.6,28.7,87.8,28.7z"/><text x="0" y="115" fill="#000000" font-size="5px" font-weight="bold" font-family="'Helvetica Neue', Helvetica, Arial-Unicode, Arial, Sans-serif">Created by Gregor Cresnar</text><text x="0" y="120" fill="#000000" font-size="5px" font-weight="bold" font-family="'Helvetica Neue', Helvetica, Arial-Unicode, Arial, Sans-serif">from the Noun Project</text></svg>