<svg xmlns="http://www.w3.org/2000/svg" xmlns:xlink="http://www.w3.org/1999/xlink" xmlns:serif="http://www.serif.com/" viewBox="0 0 48 60" version="1.1" xml:space="preserve" style="" x="0px" y="0px" fill-rule="evenodd" clip-rule="evenodd" stroke-linejoin="round" stroke-miterlimit="2"><g transform="matrix(1,0,0,1,-144,-336)"><g><path d="M177.586,349L170,356.586C170,356.586 164.707,351.293 164.707,351.293C164.317,350.902 163.683,350.902 163.293,351.293L155.293,359.293C154.903,359.683 154.903,360.317 155.293,360.707C155.683,361.097 156.317,361.097 156.707,360.707L164,353.414C164,353.414 169.293,358.707 169.293,358.707C169.683,359.098 170.317,359.098 170.707,358.707L179,350.414L179,354C179,354.552 179.448,355 180,355C180.552,355 181,354.552 181,354L181,348C181,347.448 180.552,347 180,347L174,347C173.448,347 173,347.448 173,348C173,348.552 173.448,349 174,349L177.586,349Z"/><path d="M160.382,373L160.211,373.342C159.703,374.358 158.664,375 157.528,375C157.528,375 153.2,375 153.2,375C152.617,375 152.057,375.232 151.644,375.644C151.232,376.057 151,376.617 151,377.2C151,377.706 151,378.294 151,378.8C151,379.383 151.232,379.943 151.644,380.356C152.057,380.768 152.617,381 153.2,381C158.25,381 177.75,381 182.8,381C183.383,381 183.943,380.768 184.356,380.356C184.768,379.943 185,379.383 185,378.8C185,378.294 185,377.706 185,377.2C185,376.617 184.768,376.057 184.356,375.644C183.943,375.232 183.383,375 182.8,375L178.472,375C177.336,375 176.297,374.358 175.789,373.342L175.618,373L186,373C187.326,373 188.598,372.473 189.536,371.536C190.473,370.598 191,369.326 191,368C191,361.852 191,350.148 191,344C191,342.674 190.473,341.402 189.536,340.464C188.598,339.527 187.326,339 186,339C177.633,339 158.367,339 150,339C148.674,339 147.402,339.527 146.464,340.464C145.527,341.402 145,342.674 145,344C145,350.148 145,361.852 145,368C145,369.326 145.527,370.598 146.464,371.536C147.402,372.473 148.674,373 150,373L160.382,373ZM183,377.2C183,377.706 183,378.294 183,378.8C183,378.853 182.979,378.904 182.941,378.941C182.904,378.979 182.853,379 182.8,379L153.2,379C153.147,379 153.096,378.979 153.059,378.941C153.021,378.904 153,378.853 153,378.8C153,378.294 153,377.706 153,377.2C153,377.147 153.021,377.096 153.059,377.059C153.096,377.021 153.147,377 153.2,377L182.8,377C182.853,377 182.904,377.021 182.941,377.059C182.979,377.096 183,377.147 183,377.2ZM162.618,373L162,374.236C161.864,374.507 161.706,374.762 161.528,375L174.472,375C174.294,374.762 174.136,374.507 174,374.236L173.382,373L162.618,373ZM150,371L186,371C186.796,371 187.559,370.684 188.121,370.121C188.684,369.559 189,368.796 189,368L189,367L147,367L147,368C147,368.796 147.316,369.559 147.879,370.121C148.441,370.684 149.204,371 150,371ZM189,365L147,365L147,344C147,343.204 147.316,342.441 147.879,341.879C148.441,341.316 149.204,341 150,341C158.367,341 177.633,341 186,341C186.796,341 187.559,341.316 188.121,341.879C188.684,342.441 189,343.204 189,344L189,365Z"/></g></g><text x="0" y="63" fill="#000000" font-size="5px" font-weight="bold" font-family="'Helvetica Neue', Helvetica, Arial-Unicode, Arial, Sans-serif">Created by Mada Creative</text><text x="0" y="68" fill="#000000" font-size="5px" font-weight="bold" font-family="'Helvetica Neue', Helvetica, Arial-Unicode, Arial, Sans-serif">from the Noun Project</text></svg>