<svg xmlns="http://www.w3.org/2000/svg" xmlns:xlink="http://www.w3.org/1999/xlink" version="1.1" x="0px" y="0px" viewBox="0 0 48 60" style="enable-background:new 0 0 48 48;" xml:space="preserve"><path d="M44,8H4C3.72,8,3.5,8.22,3.5,8.5v24C3.5,32.78,3.72,33,4,33h16.5v4H17c-0.28,0-0.5,0.22-0.5,0.5v2c0,0.28,0.22,0.5,0.5,0.5  h14c0.28,0,0.5-0.22,0.5-0.5v-2c0-0.28-0.22-0.5-0.5-0.5h-3.5v-4H44c0.28,0,0.5-0.22,0.5-0.5v-24C44.5,8.22,44.28,8,44,8z M30.5,38  v1h-13v-1H21h6H30.5z M21.5,37v-4h5v4H21.5z M43.5,32H27h-6H4.5V9h39V32z"/><path d="M18,28c0.08,0,0.15-0.02,0.22-0.05l14-7c0.17-0.08,0.28-0.26,0.28-0.45s-0.11-0.36-0.28-0.45l-14-7  c-0.16-0.08-0.34-0.07-0.49,0.02c-0.15,0.09-0.24,0.25-0.24,0.43v14c0,0.17,0.09,0.33,0.24,0.43C17.82,27.98,17.91,28,18,28z   M18.5,14.31l12.38,6.19L18.5,26.69V14.31z"/><text x="0" y="63" fill="#000000" font-size="5px" font-weight="bold" font-family="'Helvetica Neue', Helvetica, Arial-Unicode, Arial, Sans-serif">Created by barurezeki</text><text x="0" y="68" fill="#000000" font-size="5px" font-weight="bold" font-family="'Helvetica Neue', Helvetica, Arial-Unicode, Arial, Sans-serif">from the Noun Project</text></svg>